<svg xmlns="http://www.w3.org/2000/svg" width="1202.425" height="1706.68" viewBox="0 0 1202.425 1706.68">
  <g id="Layer_x0020_1" transform="translate(-565.42 -313.32)">
    <path id="Path_11" data-name="Path 11" d="M618.76,1966.66h433.53v-960.6a215.066,215.066,0,0,0-35.98-119.29,219.093,219.093,0,0,0-96.54-80.39l-.02.06a26.689,26.689,0,0,1-16.23-24.94V366.67h-136V781.9a26.67,26.67,0,0,1-17.93,25.2,219.221,219.221,0,0,0-94.86,79.67,215.121,215.121,0,0,0-35.98,119.29v960.6Zm460.2,53.34H592.09a26.669,26.669,0,0,1-26.67-26.67V1006.06a268.18,268.18,0,0,1,44.94-148.67,272.951,272.951,0,0,1,103.83-92.41V339.99a26.669,26.669,0,0,1,26.67-26.67H930.2a26.669,26.669,0,0,1,26.67,26.67V764.98a272.87,272.87,0,0,1,103.83,92.41,268.131,268.131,0,0,1,44.94,148.67v987.27a26.669,26.669,0,0,1-26.67,26.67Z" fill="#e4002b"></path>
    <path id="Path_12" data-name="Path 12" d="M740.85,458.71H930.19a26.669,26.669,0,0,1,26.67,26.67V634.14a26.669,26.669,0,0,1-26.67,26.67H740.85a26.669,26.669,0,0,1-26.67-26.67V485.38A26.669,26.669,0,0,1,740.85,458.71Zm162.67,53.34h-136v95.43h136Z" fill="#e4002b"></path>
    <path id="Path_13" data-name="Path 13" d="M1052.29,1134.17H794.57v514.69h257.72V1134.17ZM767.9,1080.83h311.06a26.669,26.669,0,0,1,26.67,26.67v568.02a26.669,26.669,0,0,1-26.67,26.67H767.9a26.669,26.669,0,0,1-26.67-26.67V1107.5a26.669,26.669,0,0,1,26.67-26.67Z" fill="#e4002b"></path>
    <path id="Path_14" data-name="Path 14" d="M1366.41,839.85h304.11a26.69,26.69,0,0,1,26.41,22.9l57.01,252.21c38.24,169.18-6.74,285.98-81.94,349.42a238.327,238.327,0,0,1-307.26-.01c-75.2-63.43-120.18-180.24-81.93-349.41l57.47-254.28-.07-.04a26.668,26.668,0,0,1,26.2-20.79Zm282.89,53.34H1387.46l-52.76,233.44c-33.13,146.52,2.94,245.24,64.44,297.11a185.482,185.482,0,0,0,238.5.01c61.5-51.88,97.56-150.6,64.44-297.12l-52.77-233.44Z" fill="#e4002b"></path>
    <path id="Path_15" data-name="Path 15" d="M1560.64,1493.26a26.67,26.67,0,0,0-53.34,0v400.31a26.67,26.67,0,0,0,53.34,0Z" fill="#e4002b"></path>
    <path id="Path_16" data-name="Path 16" d="M1375.06,1866.91a26.67,26.67,0,0,0,0,53.34h317.81a26.67,26.67,0,0,0,0-53.34Z" fill="#e4002b"></path>
    <path id="Path_17" data-name="Path 17" d="M1458.09,1097.72a26.619,26.619,0,1,0-45.83-27.09c-.32.54-113.34,187.56,68.16,330.19a26.635,26.635,0,1,0,32.92-41.88c-144.5-113.56-55.5-260.81-55.24-261.23Z" fill="#e4002b"></path>
  </g>
</svg>