<svg id="Layer_1" data-name="Layer 1" xmlns="http://www.w3.org/2000/svg" viewBox="0 0 48 48">
  <defs>
    <style>
      .cls-1 {
        stroke-width: 0px;
      }
    </style>
  </defs>
  <path class="cls-1" d="m38.703,25.908c1.314-.319,2.297-1.497,2.297-2.908,0-.811-.317-1.565-.874-2.108-.36-.37-.806-.619-1.29-.76.106-.53.164-1.075.164-1.632,0-2.914-1.475-5.488-3.716-7.02l3.414-5.458c.291-.465.376-1.013.243-1.544-.132-.523-.477-.977-.938-1.241l-1.677-.974c-.47-.269-1.04-.336-1.56-.181-.525.154-.952.506-1.2.982l-1.951,3.684c-1.389-2.808-4.276-4.748-7.616-4.748-4.601,0-8.35,3.676-8.487,8.244-3.73.898-6.513,4.254-6.513,8.256,0,.558.059,1.102.165,1.633-1.246.365-2.165,1.505-2.165,2.867,0,.811.317,1.565.874,2.108.393.404.886.671,1.423.8,1.16,5.874,5.761,10.451,11.486,11.724-.135.597-.302,1.187-.537,1.755-.154.372-.521.612-.936.612h-3.31c-2.206,0-4,1.794-4,4,0,1.103.897,2,2,2h20c1.103,0,2-.897,2-2,0-1.066-.417-2.071-1.173-2.827s-1.76-1.173-2.827-1.173h-3.31c-.415,0-.782-.24-.936-.612-.235-.568-.401-1.158-.537-1.755,5.725-1.273,10.326-5.851,11.486-11.725Zm-.703-1.908h-15v-2h15c.267,0,.513.102.712.306.186.181.288.428.288.694,0,.551-.449,1-1,1Zm-1-5.5c0,.519-.082,1.016-.201,1.5h-10.934c.089-.488.135-.989.135-1.5,0-1.312-.308-2.551-.841-3.662,1.202-1.757,3.197-2.838,5.341-2.838,3.584,0,6.5,2.916,6.5,6.5Zm-1.672-14.503l1.675.965-3.501,5.596c-.329-.125-.667-.23-1.015-.314-.008-.258-.024-.514-.055-.766l2.895-5.482Zm-11.328.003c3.416,0,6.219,2.65,6.475,6.002-2.515.008-4.87,1.151-6.462,3.047-1.555-1.855-3.885-3.039-6.488-3.047.256-3.351,3.059-6.001,6.475-6.001Zm-6.5,8c3.584,0,6.5,2.916,6.5,6.5,0,.519-.082,1.016-.201,1.5h-.799c0-.552-.448-1-1-1s-1,.448-1,1v5c0,.552-.449,1-1,1s-1-.448-1-1v-5c0-.552-.448-1-1-1s-1,.448-1,1v2c0,.551-.449,1-1,1s-1-.449-1-1v-2c0-.552-.448-1-1-1s-1,.448-1,1h-1.799c-.119-.484-.201-.981-.201-1.5,0-3.584,2.916-6.5,6.5-6.5Zm-7.5,10h3c0,.771.301,1.468.78,2h-3.78c-.267,0-.513-.102-.712-.306-.186-.181-.288-.428-.288-.694,0-.551.449-1,1-1Zm15.906,18.151c.464,1.123,1.557,1.849,2.784,1.849h3.31c.533,0,1.035.208,1.413.587s.587.881.587,1.413H14c0-1.103.897-2,2-2h3.31c1.227,0,2.32-.726,2.784-1.849.295-.714.5-1.457.662-2.209.411.035.825.058,1.244.058s.833-.023,1.244-.058c.162.752.367,1.495.662,2.209Zm-1.906-4.151c-6.037,0-11.283-4.225-12.652-10h5.837c.414,1.161,1.514,2,2.816,2s2.402-.839,2.816-2h13.836c-1.369,5.775-6.615,10-12.652,10Z" id="id_101" style="fill: rgb(255, 255, 255);"></path>
</svg>