<svg id="icon" xmlns="http://www.w3.org/2000/svg" viewBox="0 0 512 512"><title>burger</title><path d="M62.134,278.949a5.393,5.393,0,0,0-6.4,4.145A39.566,39.566,0,0,0,94.4,330.926h13.945L150.4,367.177a28.934,28.934,0,0,0,36.364,1.031,5.39,5.39,0,0,0-6.564-8.551,18.109,18.109,0,0,1-22.761-.645l-32.584-28.086h92.77l-4.343,3.335a5.39,5.39,0,1,0,6.565,8.55l15.481-11.885h45.69a5.39,5.39,0,0,0,0-10.78H94.4a28.79,28.79,0,0,1-28.122-34.8A5.389,5.389,0,0,0,62.134,278.949Z" id="id_101" style="fill: rgb(228, 0, 43);"></path><path d="M443.418,371.454V344.849a5.39,5.39,0,0,0-10.78,0v26.605a24.843,24.843,0,0,1-24.814,24.814H104.176a24.843,24.843,0,0,1-24.814-24.814V344.849a5.39,5.39,0,0,0-10.78,0v26.605a35.635,35.635,0,0,0,35.594,35.594H407.824A35.635,35.635,0,0,0,443.418,371.454Z" id="id_102" style="fill: rgb(228, 0, 43);"></path><path d="M198.745,345.421l-2.116,1.624a5.39,5.39,0,0,0,6.564,8.551l2.115-1.624a5.39,5.39,0,0,0-6.563-8.551Z" id="id_103" style="fill: rgb(228, 0, 43);"></path><path d="M86.635,180.893a5.386,5.386,0,0,0,7.311-2.158q.75-1.38,1.535-2.736a5.39,5.39,0,1,0-9.328-5.4q-.858,1.48-1.676,2.985A5.391,5.391,0,0,0,86.635,180.893Z" id="id_104" style="fill: rgb(228, 0, 43);"></path><path d="M260.87,147.557a5.391,5.391,0,0,0,0-10.781h-5.916a5.391,5.391,0,0,0,0,10.781Z" id="id_105" style="fill: rgb(228, 0, 43);"></path><path d="M226.332,199.225a5.39,5.39,0,0,0,0-10.78h-5.917a5.39,5.39,0,1,0,0,10.78Z" id="id_106" style="fill: rgb(228, 0, 43);"></path><path d="M295.409,199.225a5.39,5.39,0,0,0,0-10.78h-5.917a5.39,5.39,0,0,0,0,10.78Z" id="id_107" style="fill: rgb(228, 0, 43);"></path><path d="M329.947,147.557a5.391,5.391,0,0,0,0-10.781H324.03a5.391,5.391,0,0,0,0,10.781Z" id="id_108" style="fill: rgb(228, 0, 43);"></path><path d="M364.485,199.225a5.39,5.39,0,0,0,0-10.78h-5.917a5.39,5.39,0,0,0,0,10.78Z" id="id_109" style="fill: rgb(228, 0, 43);"></path><path d="M191.673,147.557a5.391,5.391,0,0,0,0-10.781h-5.917a5.391,5.391,0,0,0,0,10.781Z" id="id_110" style="fill: rgb(228, 0, 43);"></path><path d="M157.015,199.225a5.39,5.39,0,0,0,0-10.78H151.1a5.39,5.39,0,0,0,0,10.78Z" id="id_111" style="fill: rgb(228, 0, 43);"></path><path d="M57.7,268.07a40.751,40.751,0,0,1,13.55,5.12c2.838,1.664,5.432,3.532,8.178,5.509,8.789,6.329,18.752,13.5,37.832,13.5s29.043-7.174,37.833-13.5c8.548-6.155,15.931-11.47,31.534-11.47s23,5.313,31.552,11.464,18.258,13.127,36.273,13.475c0,0,.615.024.831.019.288,0,.8-.014.83-.016,18.08-.351,28.11-7.3,36.962-13.422,8.931-6.182,16.644-11.52,32.3-11.52,15.6,0,22.986,5.315,31.534,11.47,8.79,6.33,18.753,13.5,37.834,13.5.068,0,.13,0,.2,0-.029,13.039-.046,26.066-.032,36.169.013,9.319.01,18.38.01,18.843v21.467a8.54,8.54,0,0,1-2.575,6.137,8.434,8.434,0,0,1-6.189,2.461,8.887,8.887,0,0,1-8.437-9.063v-8.757a17.655,17.655,0,0,0-17.635-17.635h-1.471a17.656,17.656,0,0,0-17.636,17.635,14.851,14.851,0,1,1-29.7,0v-68.6a5.39,5.39,0,0,0-10.78,0v68.6a25.631,25.631,0,1,0,51.261,0,6.863,6.863,0,0,1,6.856-6.855h1.471a6.863,6.863,0,0,1,6.855,6.855v8.757c0,10.748,8.532,19.649,19.02,19.842q.183,0,.366,0a19.381,19.381,0,0,0,19.375-19.38V348.6c.118-.443-.074-13.918.024-57.307,12.258-2.115,19.929-7.608,26.852-12.594,2.546-1.832,4.969-3.564,7.568-5.133a28.739,28.739,0,0,1-16.743,46,5.389,5.389,0,1,0,2.161,10.56,39.542,39.542,0,0,0,24.659-61.072,41.392,41.392,0,0,1,4.082-.981,18.774,18.774,0,0,0-3.579-37.2h-4.063c-2.838-69.91-60.589-125.913-131.184-125.913H199.885a131.227,131.227,0,0,0-99.656,45.806,5.39,5.39,0,0,0,8.179,7.023,120.461,120.461,0,0,1,91.477-42.049H315.477a120.668,120.668,0,0,1,120.4,115.133H79.493a120.257,120.257,0,0,1,5.286-30.452,5.39,5.39,0,0,0-10.293-3.2A131.031,131.031,0,0,0,68.7,230.865H61.277a18.774,18.774,0,0,0-3.58,37.2Zm3.58-26.425H450.724a8.005,8.005,0,0,1,8,8,7.91,7.91,0,0,1-6.39,7.83,51.232,51.232,0,0,0-17.03,6.42c-3.274,1.918-6.2,4.024-9.023,6.058-8.548,6.156-15.931,11.472-31.533,11.472s-22.987-5.316-31.535-11.472c-8.79-6.328-18.753-13.5-37.833-13.5-19.026,0-29.339,7.138-38.439,13.436-8.7,6.022-16.213,11.222-31.15,11.511-.014,0-.268.012-.5.012-.154,0-.409-.011-.526-.014-14.761-.287-21.959-5.461-30.293-11.453-8.8-6.324-18.765-13.492-37.845-13.492s-29.043,7.174-37.833,13.5c-8.548,6.155-15.931,11.471-31.534,11.471s-22.986-5.316-31.533-11.471c-2.827-2.035-5.75-4.14-9.023-6.059a51.229,51.229,0,0,0-17.031-6.42,7.91,7.91,0,0,1-6.39-7.83A8.005,8.005,0,0,1,61.277,241.645Z" id="id_112" style="fill: rgb(228, 0, 43);"></path></svg>